# 3ds Max Wavefront OBJ Exporter v0.97b - (c)2007 guruware
# File Created: 08.10.2019 21:45:23

mtllib TPA5.mtl

#
# object Box006
#

v  -10.826772 -1.181102 11.811024
v  -10.826772 -1.181102 -11.811024
v  -10.340366 -1.181102 -11.811024
v  -10.340366 -1.181102 11.811024
v  -10.826772 30.165213 12.120032
v  -10.340366 30.165213 12.120032
v  -10.340366 30.165213 -11.813405
v  -10.826772 30.165213 -11.813406
v  -10.826772 0.000755 12.120031
v  -10.340366 0.000755 12.120032
v  10.826772 0.000000 11.811024
v  10.826772 0.000000 -11.811024
v  10.826772 29.921259 -11.811024
v  10.826772 29.921259 11.811024
v  10.440104 0.000000 -11.811024
v  10.440104 29.921259 -11.811024
v  -10.826772 0.000000 -11.811024
v  -10.826772 0.000000 11.811024
v  -10.826772 29.921259 11.811024
v  -10.826772 29.921259 -11.811024
v  -10.340366 0.000000 -11.811024
v  10.826772 -1.181102 11.811024
v  10.826772 -1.181102 -11.811024
v  10.826772 0.000000 14.173228
v  10.440104 0.000000 14.173228
v  10.440104 -1.181102 14.173228
v  10.826772 -1.181102 14.173228
v  10.440104 0.000000 11.811024
v  -10.826772 -1.181102 14.173228
v  -10.826772 0.000000 14.173228
v  -10.340366 -1.181102 14.173229
v  10.440104 -1.181102 -11.811024
v  10.440104 -1.181102 11.811024
v  10.440104 30.165213 12.120032
v  10.826772 30.165213 12.120032
v  10.826772 30.165213 -11.813404
v  10.440104 30.165213 -11.813405
v  10.440104 0.000755 12.120032
v  10.826772 0.000755 12.120032
v  -10.340366 29.921259 -11.811024
v  -9.986234 29.921259 -11.811024
v  10.054488 29.921259 -11.811024
v  -10.340366 0.000000 14.173228
v  -10.340366 0.000000 11.811024
v  10.054491 30.472441 11.811024
v  10.440104 30.472441 11.811024
v  10.440104 32.666527 -11.811024
v  10.054488 32.666527 -11.811024
v  10.440104 29.921259 11.811024
v  10.054491 29.921259 11.811024
v  -9.986233 29.921259 11.811024
v  -10.340366 29.921259 11.811024
v  -9.986234 32.666527 -11.811024
v  -10.340366 32.666527 -11.811024
v  -10.340366 30.472441 11.811024
v  -9.986233 30.472441 11.811024
v  10.054488 32.509048 -11.811024
v  10.440104 32.509048 -11.811024
v  10.054491 30.314960 11.811024
v  10.440104 30.314960 11.811024
v  -9.986233 30.314960 11.811024
v  -10.340366 30.314960 11.811024
v  -9.986234 32.509048 -11.811024
v  -10.340366 32.509048 -11.811024
# 64 vertices

vn -0.707107 -0.707107 -0.000000
vn -0.577350 -0.577350 -0.577350
vn 0.000000 -0.707107 -0.707107
vn 0.000000 -1.000000 -0.000000
vn -0.577350 0.577350 0.577350
vn 0.577350 0.577350 0.577350
vn 0.576840 0.574779 -0.580417
vn -0.576838 0.574779 -0.580420
vn -0.577479 -0.576580 0.577990
vn 0.577478 -0.576581 0.577991
vn 1.000000 0.000001 0.000611
vn 0.707107 0.000000 -0.707107
vn 0.708246 -0.003444 -0.705958
vn 1.000000 0.000000 -0.000000
vn 0.000000 0.000000 -1.000000
vn -0.001553 -0.002440 -0.999996
vn -0.707107 0.000000 -0.707107
vn -1.000000 0.000001 0.000611
vn -1.000000 0.000000 -0.000000
vn -0.708207 -0.003447 -0.705996
vn 0.707107 -0.707107 -0.000000
vn 0.577350 -0.577350 -0.577350
vn 0.000000 0.707107 0.707107
vn 0.000000 -0.707107 0.707107
vn 0.577350 -0.577350 0.577350
vn -0.576281 0.577180 0.578588
vn -0.577351 -0.577350 0.577350
vn -0.000001 -0.707107 0.707107
vn 0.576797 0.574737 -0.580502
vn -0.576838 0.574780 -0.580418
vn -0.577479 -0.576581 0.577991
vn 0.577479 -0.576581 0.577991
vn 0.001553 -0.002440 -0.999996
vn 0.301511 0.301511 -0.904534
vn -0.301511 0.301511 -0.904534
vn 0.000000 0.707107 0.707106
vn 0.576281 0.577180 0.578588
vn -0.582335 0.547675 0.600781
vn 0.582420 0.547514 0.600846
vn 0.572678 0.605819 -0.552290
vn -0.572678 0.605819 -0.552290
vn -0.707107 0.000000 0.707107
vn -0.301511 0.301511 0.904534
vn 0.301511 0.301511 0.904534
vn 0.707107 0.000000 0.707107
vn 0.572593 0.605995 -0.552183
vn -0.582420 0.547514 0.600846
# 47 vertex normals

vt -0.897716 0.999000 0.000000
vt -0.897716 0.001000 0.000000
vt -0.877166 0.001000 0.000000
vt -0.877166 0.999000 0.000000
vt 0.038710 0.061745 0.000000
vt 0.041605 0.061745 0.000000
vt 0.041605 0.463292 0.000000
vt 0.038710 0.463292 0.000000
vt 0.395542 0.064392 0.000000
vt 0.387958 0.064392 0.000000
vt 0.387958 0.465137 0.000000
vt 0.395542 0.465137 0.000000
vt 0.324153 0.521142 0.000000
vt 0.678387 0.521142 0.000000
vt 0.678387 0.928319 0.000000
vt 0.324153 0.928319 0.000000
vt 0.508953 0.072282 0.000000
vt 0.512604 0.072282 0.000000
vt 0.512604 0.438278 0.000000
vt 0.508953 0.438278 0.000000
vt 0.499728 0.031889 0.000000
vt 0.877204 0.031889 0.000000
vt 0.877204 0.466416 0.000000
vt 0.499728 0.466416 0.000000
vt 0.084667 0.305459 0.000000
vt 0.084667 0.229602 0.000000
vt 0.091327 0.229602 0.000000
vt 0.091327 0.305459 0.000000
vt 0.085616 0.329504 0.000000
vt 0.082854 0.325860 0.000000
vt 0.089330 0.316697 0.000000
vt 0.092092 0.320341 0.000000
vt 0.185544 0.065435 0.000000
vt 0.279308 0.065435 0.000000
vt 0.279308 0.073959 0.000000
vt 0.185544 0.073959 0.000000
vt 0.135963 0.072770 0.000000
vt 0.135963 0.065291 0.000000
vt 0.166425 0.065291 0.000000
vt 0.166425 0.072770 0.000000
vt 1.486347 0.582654 0.000000
vt 1.498889 0.582654 0.000000
vt 1.498889 0.659275 0.000000
vt 1.486347 0.659275 0.000000
vt 0.092198 0.226255 0.000000
vt 0.082231 0.226255 0.000000
vt 0.082231 0.180323 0.000000
vt 0.092198 0.180323 0.000000
vt 3.149156 -0.266185 0.000000
vt 3.136648 -0.266185 0.000000
vt 3.136648 -0.326928 0.000000
vt 3.149156 -0.326928 0.000000
vt 0.288684 0.065435 0.000000
vt 0.288684 0.073959 0.000000
vt -0.147332 0.001000 0.000000
vt -0.130996 0.001000 0.000000
vt -0.130996 0.999000 0.000000
vt -0.147332 0.999000 0.000000
vt 0.864251 0.148160 0.000000
vt 0.868856 0.148160 0.000000
vt 0.868856 0.352589 0.000000
vt 0.864251 0.352589 0.000000
vt 0.388345 0.066995 0.000000
vt 0.391973 0.066995 0.000000
vt 0.391973 0.466213 0.000000
vt 0.388345 0.466213 0.000000
vt 0.035116 0.034695 0.000000
vt 0.393931 0.034695 0.000000
vt 0.393931 0.497037 0.000000
vt 0.387816 0.497037 0.000000
vt 0.041775 0.497037 0.000000
vt 0.035116 0.497037 0.000000
vt 0.097935 0.452778 0.000000
vt 0.099710 0.454356 0.000000
vt 0.096054 0.461501 0.000000
vt 0.094280 0.459923 0.000000
vt 0.318176 0.461269 0.000000
vt 0.105965 0.461269 0.000000
vt 0.105965 0.453924 0.000000
vt 0.318176 0.453924 0.000000
vt 0.973882 0.510461 0.000000
vt 0.656995 0.510461 0.000000
vt 0.656995 0.494316 0.000000
vt 0.973882 0.494316 0.000000
vt 1.422267 0.543043 0.000000
vt 1.422267 0.555585 0.000000
vt 1.345646 0.555585 0.000000
vt 1.345646 0.543043 0.000000
vt 0.221180 0.091067 0.000000
vt 0.317813 0.091067 0.000000
vt 0.317813 0.237359 0.000000
vt 0.221180 0.237359 0.000000
vt 0.503966 0.061898 0.000000
vt 0.508161 0.061898 0.000000
vt 0.508161 0.439701 0.000000
vt 0.503966 0.439701 0.000000
vt 0.022587 0.535249 0.000000
vt 0.312671 0.535249 0.000000
vt 0.312671 0.943382 0.000000
vt 0.307288 0.943382 0.000000
vt 0.027530 0.943382 0.000000
vt 0.022587 0.943382 0.000000
vt 0.084698 0.450988 0.000000
vt 0.084698 0.418933 0.000000
vt 0.090479 0.418933 0.000000
vt 0.090479 0.450988 0.000000
vt 0.652270 0.149462 0.000000
vt 0.832292 0.149462 0.000000
vt 0.832292 0.181188 0.000000
vt 0.652270 0.181188 0.000000
vt 0.509281 0.068738 0.000000
vt 0.510199 0.068738 0.000000
vt 0.510199 0.441108 0.000000
vt 0.509281 0.441108 0.000000
vt 0.322669 0.066900 0.000000
vt 0.322669 0.073175 0.000000
vt 0.301256 0.073175 0.000000
vt 0.301256 0.066900 0.000000
vt 3.123218 -0.326928 0.000000
vt 3.135726 -0.326928 0.000000
vt 3.135726 -0.266185 0.000000
vt 3.123218 -0.266185 0.000000
vt 0.508903 0.068255 0.000000
vt 0.508903 0.440795 0.000000
vt 0.501709 0.445668 0.000000
vt 0.501709 0.068218 0.000000
vt 1.298019 0.522369 0.000000
vt 1.298019 1.492904 0.000000
vt 1.287996 1.492880 0.000000
vt 1.287996 0.514456 0.000000
vt 2.266401 0.773370 0.000000
vt 2.250624 0.773370 0.000000
vt 2.250624 0.763347 0.000000
vt 2.266401 0.763347 0.000000
vt 0.044797 0.106628 0.000000
vt 0.044797 0.336057 0.000000
vt 0.037155 0.337927 0.000000
vt 0.037155 0.106634 0.000000
vt 1.315461 0.537514 0.000000
vt 1.315461 1.303726 0.000000
vt 1.307548 1.303803 0.000000
vt 1.307548 0.527491 0.000000
vt 0.047699 0.093694 0.000000
vt 0.037612 0.086891 0.000000
vt 0.041024 0.081832 0.000000
vt 0.051111 0.088635 0.000000
vt 2.252589 -1.292104 0.000000
vt 3.250589 -1.292104 0.000000
vt 3.250589 -0.494543 0.000000
vt 2.252589 -0.494543 0.000000
vt 0.392876 0.093437 0.000000
vt 0.392876 0.438206 0.000000
vt 0.387867 0.441017 0.000000
vt 0.387867 0.093446 0.000000
vt 0.832435 0.051881 0.000000
vt 0.547112 0.051881 0.000000
vt 0.547083 0.043694 0.000000
vt 0.836168 0.043694 0.000000
vt 2.217909 -0.289538 0.000000
vt 2.225061 -0.282631 0.000000
vt 2.220704 -0.278119 0.000000
vt 2.213551 -0.285026 0.000000
vt 3.111589 0.402851 0.000000
vt 3.111589 -0.204581 0.000000
vt 3.117862 -0.212527 0.000000
vt 3.117862 0.402912 0.000000
vt 0.677527 0.883391 0.000000
vt 0.677527 0.567484 0.000000
vt 0.671374 0.567484 0.000000
vt 0.671374 0.883391 0.000000
vt 0.995263 0.532681 0.000000
vt 0.995263 0.941219 0.000000
vt 0.683043 0.941219 0.000000
vt 0.683043 0.532681 0.000000
vt 0.392249 0.469341 0.000000
vt 0.385703 0.469341 0.000000
vt 0.385703 0.066202 0.000000
vt 0.392249 0.066202 0.000000
vt 0.536271 0.412101 0.000000
vt 0.546056 0.412101 0.000000
vt 0.546056 0.438143 0.000000
vt 0.536271 0.438143 0.000000
vt 0.669605 0.310778 0.000000
vt 0.802807 0.310778 0.000000
vt 0.802807 0.317593 0.000000
vt 0.669605 0.355572 0.000000
vt 3.149156 -0.327850 0.000000
vt 3.139240 -0.327850 0.000000
vt 3.139240 -0.337974 0.000000
vt 3.149156 -0.337974 0.000000
vt 0.449987 0.781199 0.000000
vt 0.449987 0.552054 0.000000
vt 0.478801 0.552054 0.000000
vt 0.454370 0.781199 0.000000
vt 1.344346 0.543043 0.000000
vt 1.344346 0.554530 0.000000
vt 1.331576 0.554530 0.000000
vt 1.331576 0.543043 0.000000
vt 0.507746 0.864763 0.000000
vt 0.507746 0.596678 0.000000
vt 0.554992 0.596678 0.000000
vt 0.514934 0.864763 0.000000
vt 0.148840 0.133847 0.000000
vt 0.174410 0.133847 0.000000
vt 0.174410 0.295446 0.000000
vt 0.148840 0.295446 0.000000
vt 0.143627 0.321491 0.000000
vt 0.300966 0.321491 0.000000
vt 0.300966 0.326126 0.000000
vt 0.143627 0.351958 0.000000
vt 2.178836 -0.234764 0.000000
vt 2.185969 -0.227876 0.000000
vt 2.183156 -0.224963 0.000000
vt 2.176023 -0.231851 0.000000
vt 3.035101 0.402912 0.000000
vt 2.978681 -0.204519 0.000000
vt 2.982731 -0.204519 0.000000
vt 3.039151 0.402912 0.000000
vt 3.139240 -0.342024 0.000000
vt 3.149156 -0.342024 0.000000
vt 0.502962 0.101128 0.000000
vt 0.503719 0.291039 0.000000
vt 0.501864 0.291304 0.000000
vt 0.501108 0.101393 0.000000
vt 1.326468 0.554530 0.000000
vt 1.326468 0.543043 0.000000
vt 2.266401 0.658930 0.000000
vt 1.500189 0.587762 0.000000
vt 1.500189 0.582654 0.000000
vt 2.266401 0.653822 0.000000
vt -0.027592 0.017609 0.000000
vt -0.034936 0.012656 0.000000
vt -0.032733 0.009390 0.000000
vt -0.025389 0.014343 0.000000
vt 0.387769 0.081539 0.000000
vt 0.388131 0.485269 0.000000
vt 0.387325 0.485029 0.000000
vt 0.386963 0.081299 0.000000
# 238 texture coords

o Box006
g Box006
usemtl wire_177028149
s 2
f 1/1/1 2/2/2 3/3/3 4/4/4 
s 4
f 5/5/5 6/6/6 7/7/7 8/8/8 
s 8
f 9/9/9 10/10/10 6/11/6 5/12/5 
s 16
f 11/13/11 12/14/12 13/15/13 14/16/14 
s 32
f 12/17/12 15/18/15 16/19/16 13/20/13 
s 64
f 17/21/17 18/22/18 19/23/19 20/24/20 
s off
f 18/25/18 17/26/17 2/27/2 1/28/1 
f 17/29/17 21/30/15 3/31/3 2/32/2 
f 12/33/12 11/34/11 22/35/21 23/36/22 
f 24/37/6 25/38/23 26/39/24 27/40/25 
f 11/41/11 28/42/26 25/43/23 24/44/6 
f 18/45/18 1/46/1 29/47/27 30/48/5 
f 1/49/1 4/50/4 31/51/28 29/52/27 
f 22/35/21 11/34/11 24/53/6 27/54/25 
s 2
f 32/55/3 23/56/22 22/57/21 33/58/4 
s 4
f 34/59/5 35/60/6 36/61/29 37/62/30 
s 8
f 38/63/31 39/64/32 35/65/6 34/66/5 
s 32
f 15/67/15 21/68/15 40/69/33 41/70/34 42/71/35 16/72/16 
s off
f 15/73/15 12/74/12 23/75/22 32/76/3 
f 25/77/23 43/78/36 31/79/28 26/80/24 
f 28/81/26 44/82/37 43/83/36 25/84/23 
f 33/85/4 22/86/21 27/87/25 26/88/24 
s 2
f 3/89/3 32/90/3 33/91/4 4/92/4 
s 4
f 45/93/38 46/94/39 47/95/40 48/96/41 
s 8
f 44/97/37 28/98/26 49/99/42 50/100/43 51/101/44 52/102/45 
s off
f 21/103/15 15/104/15 32/105/3 3/106/3 
f 4/107/4 33/108/4 26/109/24 31/110/28 
s 32
f 21/111/15 17/112/17 20/113/20 40/114/33 
s off
f 43/115/36 30/116/5 29/117/27 31/118/28 
f 44/119/37 18/120/18 30/121/5 43/122/36 
f 20/123/20 19/124/19 5/125/5 8/126/8 
f 19/127/19 18/128/18 9/129/9 5/130/5 
f 18/131/18 44/132/37 10/133/10 9/134/9 
f 44/135/37 52/136/45 6/137/6 10/138/10 
f 52/139/45 40/140/33 7/141/7 6/142/6 
f 40/143/33 20/144/20 8/145/8 7/146/7 
f 28/147/26 11/148/11 39/149/32 38/150/31 
f 11/151/11 14/152/14 35/153/6 39/154/32 
f 14/155/14 13/156/13 36/157/29 35/158/6 
f 13/159/13 16/160/16 37/161/30 36/162/29 
f 16/163/16 49/164/42 34/165/5 37/166/30 
f 49/167/42 28/168/26 38/169/31 34/170/5 
s 4
f 42/171/35 41/172/34 51/173/44 50/174/43 
f 53/175/46 54/176/41 55/177/47 56/178/39 
s off
f 16/179/16 42/180/35 57/181/17 58/182/12 
f 42/183/35 50/184/43 59/185/42 57/186/17 
f 50/187/43 49/188/42 60/189/45 59/190/42 
f 49/191/42 16/192/16 58/193/12 60/194/45 
f 52/195/45 51/196/44 61/197/45 62/198/42 
f 51/199/44 41/200/34 63/201/12 61/202/45 
f 41/203/34 40/204/33 64/205/17 63/206/12 
f 40/207/33 52/208/45 62/209/42 64/210/17 
f 58/211/12 57/212/17 48/213/41 47/214/40 
f 57/215/17 59/216/42 45/217/38 48/218/41 
f 59/190/42 60/189/45 46/219/39 45/220/38 
f 60/221/45 58/222/12 47/223/40 46/224/39 
f 62/198/42 61/197/45 56/225/39 55/226/47 
f 61/227/45 63/228/12 53/229/46 56/230/39 
f 63/231/12 64/232/17 54/233/41 53/234/46 
f 64/235/17 62/236/42 55/237/47 54/238/41 
# 60 polygons

